<svg width="20" height="19" viewBox="0 0 20 19" fill="none" xmlns="http://www.w3.org/2000/svg">
<path d="M6.68535 10.95H7.56035V8.95H8.68535C8.93535 8.95 9.14368 8.86267 9.31035 8.688C9.47702 8.51267 9.56035 8.3 9.56035 8.05V6.95C9.56035 6.7 9.47702 6.48733 9.31035 6.312C9.14368 6.13733 8.93535 6.05 8.68535 6.05H6.68535V10.95ZM7.56035 8.05V6.95H8.68535V8.05H7.56035ZM10.5854 10.95H12.5604C12.8104 10.95 13.0187 10.8627 13.1854 10.688C13.352 10.5127 13.4354 10.3 13.4354 10.05V6.95C13.4354 6.7 13.352 6.48733 13.1854 6.312C13.0187 6.13733 12.8104 6.05 12.5604 6.05H10.5854V10.95ZM11.4854 10.05V6.95H12.5604V10.05H11.4854ZM14.5604 10.95H15.4354V8.95H16.6354V8.05H15.4354V6.95H16.6354V6.05H14.5604V10.95ZM5.91035 15.5C5.41035 15.5 4.98535 15.325 4.63535 14.975C4.28535 14.625 4.11035 14.2 4.11035 13.7V2.3C4.11035 1.8 4.28535 1.375 4.63535 1.025C4.98535 0.675 5.41035 0.5 5.91035 0.5H17.3104C17.8104 0.5 18.2354 0.675 18.5854 1.025C18.9354 1.375 19.1104 1.8 19.1104 2.3V13.7C19.1104 14.2 18.9354 14.625 18.5854 14.975C18.2354 15.325 17.8104 15.5 17.3104 15.5H5.91035ZM5.91035 14H17.3104C17.3937 14 17.4647 13.9707 17.5234 13.912C17.5814 13.854 17.6104 13.7833 17.6104 13.7V2.3C17.6104 2.21667 17.5814 2.14567 17.5234 2.087C17.4647 2.029 17.3937 2 17.3104 2H5.91035C5.82702 2 5.75635 2.029 5.69835 2.087C5.63968 2.14567 5.61035 2.21667 5.61035 2.3V13.7C5.61035 13.7833 5.63968 13.854 5.69835 13.912C5.75635 13.9707 5.82702 14 5.91035 14ZM2.41035 19C1.91035 19 1.48535 18.825 1.13535 18.475C0.785352 18.125 0.610352 17.7 0.610352 17.2V4.3H2.11035V17.2C2.11035 17.2833 2.13968 17.3543 2.19835 17.413C2.25635 17.471 2.32702 17.5 2.41035 17.5H15.3104V19H2.41035Z" fill="#1A1A1C"/>
</svg>
